<svg id="visual" viewBox="0 0 900 600" width="900" height="600" xmlns="http://www.w3.org/2000/svg" xmlns:xlink="http://www.w3.org/1999/xlink" version="1.1"><rect x="0" y="0" width="900" height="600" fill="#aeecb5"></rect><path d="M0 413L25 408.2C50 403.3 100 393.7 150 384C200 374.3 250 364.7 300 370.2C350 375.7 400 396.3 450 398.3C500 400.3 550 383.7 600 376.3C650 369 700 371 750 371.5C800 372 850 371 875 370.5L900 370L900 601L875 601C850 601 800 601 750 601C700 601 650 601 600 601C550 601 500 601 450 601C400 601 350 601 300 601C250 601 200 601 150 601C100 601 50 601 25 601L0 601Z" fill="#7eed84"></path><path d="M0 464L25 453.8C50 443.7 100 423.3 150 416.7C200 410 250 417 300 428.8C350 440.7 400 457.3 450 461C500 464.7 550 455.3 600 449.7C650 444 700 442 750 434.5C800 427 850 414 875 407.5L900 401L900 601L875 601C850 601 800 601 750 601C700 601 650 601 600 601C550 601 500 601 450 601C400 601 350 601 300 601C250 601 200 601 150 601C100 601 50 601 25 601L0 601Z" fill="#62c96b"></path><path d="M0 446L25 447.2C50 448.3 100 450.7 150 460.5C200 470.3 250 487.7 300 489.2C350 490.7 400 476.3 450 476.5C500 476.7 550 491.3 600 495.2C650 499 700 492 750 485.2C800 478.3 850 471.7 875 468.3L900 465L900 601L875 601C850 601 800 601 750 601C700 601 650 601 600 601C550 601 500 601 450 601C400 601 350 601 300 601C250 601 200 601 150 601C100 601 50 601 25 601L0 601Z" fill="#47a652"></path><path d="M0 482L25 483.5C50 485 100 488 150 489.8C200 491.7 250 492.3 300 498.2C350 504 400 515 450 520C500 525 550 524 600 524.7C650 525.3 700 527.7 750 524C800 520.3 850 510.7 875 505.8L900 501L900 601L875 601C850 601 800 601 750 601C700 601 650 601 600 601C550 601 500 601 450 601C400 601 350 601 300 601C250 601 200 601 150 601C100 601 50 601 25 601L0 601Z" fill="#2c843a"></path><path d="M0 574L25 566.3C50 558.7 100 543.3 150 535.7C200 528 250 528 300 528.3C350 528.7 400 529.3 450 533.8C500 538.3 550 546.7 600 547.2C650 547.7 700 540.3 750 539.2C800 538 850 543 875 545.5L900 548L900 601L875 601C850 601 800 601 750 601C700 601 650 601 600 601C550 601 500 601 450 601C400 601 350 601 300 601C250 601 200 601 150 601C100 601 50 601 25 601L0 601Z" fill="#0d6424"></path></svg>